<svg width="406" height="63" viewBox="0 0 406 63" fill="none" xmlns="http://www.w3.org/2000/svg">
<path fill-rule="evenodd" clip-rule="evenodd" d="M140.225 1.97112C136.353 4.33212 134.998 7.39912 135.007 13.7821C135.015 19.5941 136.603 22.0811 145.842 30.7521C151.685 36.2361 153 38.0301 153 40.5181C153 44.0821 151.443 45.9671 148.5 45.9671C145.5 45.9671 144 44.0671 144 40.2671C144 37.1181 143.829 36.9681 140.25 36.9821C134.685 37.0051 133.605 38.0471 134.454 42.5731C136.172 51.7311 140.021 54.4951 150.046 53.7701C155.112 53.4041 156.581 52.8471 159.078 50.3501C162.402 47.0271 163.624 42.1041 162.548 36.3711C162.001 33.4561 160.035 30.8981 153.36 24.4151C145.287 16.5761 144.883 15.9771 145.184 12.3171C145.485 8.64612 145.662 8.46712 148.99 8.46712C152.087 8.46712 152.538 8.80512 152.995 11.4671C153.473 14.2501 153.853 14.4891 158.255 14.7721C162.799 15.0641 163 14.9641 163 12.4231C163 8.09712 160.112 3.24812 156.522 1.54412C151.844 -0.674883 144.239 -0.475883 140.225 1.97112ZM9 1.86612C9 2.36012 6.975 15.6561 4.5 31.4121C2.025 47.1681 0 60.7731 0 61.6451C0 62.9231 0.792 63.1241 4.083 62.6831C6.328 62.3821 8.367 61.9331 8.614 61.6871C8.86 61.4401 9.329 58.9811 9.656 56.2211L10.25 51.2051L14.765 50.5861C21.835 49.6171 21.716 49.5411 22.463 55.5171L23.156 61.0661L27.828 60.3881C30.398 60.0161 32.654 59.5771 32.843 59.4131C33.031 59.2491 31.06 46.0311 28.461 30.0411L23.736 0.967118H16.368C12.316 0.967118 9 1.37112 9 1.86612ZM37 29.8001C37 45.6591 37.193 58.8271 37.429 59.0631C37.666 59.2991 39.916 59.3291 42.429 59.1291L47 58.7661V47.8661V36.9671L50.75 36.9651C52.813 36.9651 56.043 36.1771 57.929 35.2151C63.437 32.4071 65.232 29.0861 65.733 20.7831C66.297 11.4291 64.655 6.31812 60.102 3.25412C57.134 1.25612 55.458 0.967118 46.852 0.967118H37V29.8001ZM70 29.0221V57.0771L74.75 56.7721L79.5 56.4671L79.783 45.2171L80.066 33.9671H82.91C87.337 33.9671 88.373 36.1731 88.828 46.5701L89.239 55.9671H92.537C98.548 55.9671 99.004 55.4081 98.956 48.1101C98.897 39.0811 97.65 33.2911 95.199 30.6641L93.148 28.4671L95.574 25.6611C97.643 23.2681 98 21.8271 98 15.8621C98 3.26112 95.128 0.967118 79.351 0.967118H70V29.0221ZM104 28.0871V55.2081L116.75 54.4941C123.762 54.1011 129.873 53.4271 130.328 52.9951C130.784 52.5641 131.009 50.9181 130.828 49.3391L130.5 46.4671L122.25 46.1771L114 45.8861V38.4271V30.9671H120.5H127V26.9671V22.9671H120.5H114V16.0071V9.04812L122.25 8.75712L130.5 8.46712L130.81 4.71712L131.121 0.967118H117.56H104V28.0871ZM168 26.9671V52.9671H181H194V48.9671V44.9671H186H178V37.4671V29.9671H184.5H191V25.9671V21.9671H184.5H178V15.4671V8.96712H186H194V4.96712V0.967118H181H168V26.9671ZM199.715 26.7171L199.931 52.4671H204.215H208.5L209 35.4851L209.5 18.5031L214.621 35.4851L219.743 52.4671L224.871 52.7691L230 53.0721V27.0191V0.967118H225.5H221L220.9 14.7171L220.799 28.4671L216.351 14.7171L211.904 0.967118H205.702H199.5L199.715 26.7171ZM234 4.96712V8.96712H238.5H243V30.9671V52.9671H248H253V30.9671V8.96712H258H263V4.96712V0.967118H248.5H234V4.96712ZM270.907 1.21712C270.151 3.24012 261.395 52.6791 261.697 53.2171C262.414 54.4951 270.034 54.0601 270.453 52.7171C270.668 52.0301 271.125 49.7801 271.467 47.7171C272.089 43.9791 272.107 43.9671 276.986 43.9671C282.343 43.9671 283.098 44.6131 283.954 49.9331C284.484 53.2281 284.843 53.5291 289.26 54.3841C291.866 54.8891 294.192 55.1091 294.428 54.8731C294.799 54.5021 287.017 9.44012 285.508 3.21712C285.006 1.15112 284.392 0.967118 277.981 0.967118C274.141 0.967118 270.958 1.08012 270.907 1.21712ZM299 27.9671V54.9671H304H309V43.9671V32.9671H315H321V29.0741C321 24.6151 320.038 23.9671 313.418 23.9671H309V16.4671V8.96712H316.5H324V4.96712V0.967118H311.5H299V27.9671ZM328 28.4081C328 43.5011 328.337 56.0561 328.75 56.3081C329.163 56.5611 335.041 57.0971 341.814 57.5001L354.128 58.2321L353.814 53.8491L353.5 49.4671L345.75 49.1751L338 48.8831V24.9251V0.967118H333H328V28.4081ZM357.235 29.7171L357.5 58.4671L362.25 58.7721L367 59.0771V30.0221V0.967118H361.985H356.969L357.235 29.7171ZM377.265 15.3601L382.151 29.7521L376.954 44.4051C374.096 52.4641 371.924 59.2001 372.129 59.3751C372.333 59.5491 374.39 59.9331 376.701 60.2281L380.901 60.7631L384.744 49.2361L388.586 37.7091L392.32 49.7811L396.053 61.8521L400.573 62.5301C403.059 62.9031 405.358 62.9421 405.683 62.6181C406.008 62.2931 403.97 54.8861 401.154 46.1581L396.035 30.2891L400.946 15.6281L405.858 0.967118H401.145H396.432L392.947 11.5721L389.461 22.1771L386.034 11.5721L382.606 0.967118H377.492H372.379L377.265 15.3601ZM54.429 10.5381C55.508 11.6171 56 13.9881 56 18.1041C56 25.9671 54.878 27.9671 50.465 27.9671H47V18.4671V8.96712H49.929C51.539 8.96712 53.564 9.67412 54.429 10.5381ZM86.8 10.1671C88.358 11.7251 88.358 22.2091 86.8 23.7671C86.14 24.4271 84.34 24.9671 82.8 24.9671H80V16.9671V8.96712H82.8C84.34 8.96712 86.14 9.50712 86.8 10.1671ZM279.459 22.9671C280.388 28.7421 281.37 34.2551 281.641 35.2171C282.06 36.7031 281.435 36.9671 277.5 36.9671C273.562 36.9671 272.94 36.7041 273.366 35.2171C273.641 34.2551 274.639 28.6221 275.583 22.7001C276.526 16.7781 277.405 12.0531 277.534 12.2001C277.664 12.3471 278.53 17.1921 279.459 22.9671ZM18.296 27.7171C19.237 34.1801 20.006 40.0301 20.004 40.7171C20.001 41.5141 18.506 41.9671 15.872 41.9671H11.744L12.332 38.2171C12.656 36.1551 13.469 30.3041 14.14 25.2171C14.811 20.1301 15.635 15.9671 15.972 15.9671C16.308 15.9671 17.354 21.2541 18.296 27.7171Z" fill="#E30914"/>
</svg>
